Genre:Drama
Language:English
IMDb:http://www.imdb.com/title/tt1124035/
Source:BluRay.720p.x264.DTS-HDChina Thanks!

Format : MPEG-4
Format profile : Base Media
Codec ID : isom
File size : 2.00 GiB
Duration : 1h 41mn
Overall bit rate : 2 831 Kbps

Video
ID : 1
Format : AVC
Format/Info : Advanced Video Codec
Format profile : High@L5.1
Format settings, CABAC : Yes
Format settings, ReFrames : 3 frames
Codec ID : avc1
Codec ID/Info : Advanced Video Coding
Duration : 1h 41mn
Bit rate mode : Variable
Bit rate : 2 500 Kbps
Maximum bit rate : 13.3 Mbps
Width : 1 280 pixels
Height : 528 pixels
Display aspect ratio : 2.40:1
Frame rate mode : Constant
Frame rate : 23.976 fps
Color space : YUV
Chroma subsampling : 4:2:0
Bit depth : 8 bits
Scan type : Progressive
Bits/(Pixel*Frame) : 0.154
Stream size : 1.74 GiB (87%)
Writing library : x264

Audio
ID : 2
Format : AAC
Format/Info : Advanced Audio Codec
Format version : Version 4
Format profile : LC
Format settings, SBR : No
Codec ID : 40
Duration : 1h 41mn
Bit rate mode : Variable
Bit rate : 363 Kbps
Maximum bit rate : 556 Kbps
Channel(s) : 6 channels
Channel positions : Front: L C R, Side: L R, LFE
Sampling rate : 48.0 KHz
Stream size : 263 MiB (13%)


Plot:
An idealistic staffer for a newbie presidential candidate gets a crash course on dirty politics during his stint on the campaign trail.

Screens
 
http://img714.imageshack.us/img714/5509/vlcsnap00001lt.png
 
http://img51.imageshack.us/img51/7651/vlcsnap00003w.png
 
http://img401.imageshack.us/img401/3269/vlcsnap00005z.png